# xmcd
#
# Track frame offsets: 
#        150
#        11550
#        23067
#        38847
#        52507
#        70092
#        82042
#        94867
#        108900
#        126475
#        138722
#        152340
#
# Disc length: 2173 seconds
#
# Revision: 2
# Processed by: cddbd v1.5.2PL0 Copyright (c) Steve Scherf et al.
# Submitted via: ExactAudioCopyFreeDBPlugin 1.0
#
DISCID=91087b0c
DTITLE=Bluegrass Album Band - Songs of Bill Monroe, The
DYEAR=1996
DGENRE=Bluegrass
TTITLE0=On My Way Back To The Old Home (vol 1) 1981
TTITLE1=I Believe In You Darling (vol 1) 1981
TTITLE2=Cheyenne (vol 4) 1985
TTITLE3=Letter From My Darlin' (vol 3) 1983
TTITLE4=Lonesome Moonlight Waltz (vol 6) 1996
TTITLE5=When You Are Lonely (vol 4) 1985
TTITLE6=Sitting Alone In The Moonlight (vol 2) 1982
TTITLE7=Molly and Tenbrooks (vol 1) 1981
TTITLE8=On The Old Kentucky Shore (vol 5) 1989
TTITLE9=Brown County Breakdown (vol 6) 1996
TTITLE10=Toy Heart (vol 1) 1981
TTITLE11=River Of Death (vol 1) 1981
EXTD=
EXTT0=
EXTT1=
EXTT2=
EXTT3=
EXTT4=
EXTT5=
EXTT6=
EXTT7=
EXTT8=
EXTT9=
EXTT10=
EXTT11=
PLAYORDER=
